<svg width="28" height="28" viewBox="0 0 28 28" fill="none" xmlns="http://www.w3.org/2000/svg">
<path fill-rule="evenodd" clip-rule="evenodd" d="M14 24.498C16.9704 24.498 19.8192 23.3917 21.9196 21.4224C24.02 19.4531 25.2 16.7822 25.2 13.9972C25.2 11.2122 24.02 8.54125 21.9196 6.57196C19.8192 4.60267 16.9704 3.49634 14 3.49634C11.0296 3.49634 8.1808 4.60267 6.08039 6.57196C3.97998 8.54125 2.79999 11.2122 2.79999 13.9972C2.79999 16.7822 3.97998 19.4531 6.08039 21.4224C8.1808 23.3917 11.0296 24.498 14 24.498V24.498ZM6.06479 11.4074C6.58459 10.0117 7.51209 8.78102 8.74159 7.8555C9.11679 8.39235 9.76359 8.74676 10.5 8.74676C11.0569 8.74676 11.5911 8.95419 11.9849 9.32343C12.3787 9.69268 12.6 10.1935 12.6 10.7157V11.372C12.6 12.0682 12.895 12.7359 13.4201 13.2283C13.9452 13.7206 14.6574 13.9972 15.4 13.9972C16.1426 13.9972 16.8548 13.7206 17.3799 13.2283C17.905 12.7359 18.2 12.0682 18.2 11.372C18.1998 10.7845 18.4097 10.2139 18.7963 9.75151C19.1829 9.28913 19.7237 8.96169 20.3322 8.82157C21.6682 10.2545 22.4031 12.0939 22.4 13.9972C22.4 14.4435 22.3608 14.8832 22.2838 15.3098H21C20.2574 15.3098 19.5452 15.5864 19.0201 16.0787C18.495 16.571 18.2 17.2387 18.2 17.935V20.8188C16.9236 21.5112 15.4746 21.8748 14 21.8728V19.2476C14 18.5513 13.705 17.8836 13.1799 17.3913C12.6548 16.899 11.9426 16.6224 11.2 16.6224C10.4574 16.6224 9.74519 16.3458 9.22009 15.8535C8.69499 15.3612 8.39999 14.6934 8.39999 13.9972C8.40024 13.3763 8.16578 12.7755 7.73825 12.3013C7.31072 11.8272 6.7178 11.5105 6.06479 11.4074V11.4074Z" fill="black"/>
</svg>
