<svg width="28" height="27" viewBox="0 0 28 27" fill="none" xmlns="http://www.w3.org/2000/svg">
<path d="M11.8 20.6228C11.8 21.3688 11.5471 22.0842 11.0971 22.6117C10.647 23.1392 10.0365 23.4355 9.4 23.4355C8.76348 23.4355 8.15303 23.1392 7.70294 22.6117C7.25286 22.0842 7 21.3688 7 20.6228C7 19.8768 7.25286 19.1614 7.70294 18.6339C8.15303 18.1064 8.76348 17.8101 9.4 17.8101C10.0365 17.8101 10.647 18.1064 11.0971 18.6339C11.5471 19.1614 11.8 19.8768 11.8 20.6228ZM23 20.6228C23 21.3688 22.7471 22.0842 22.2971 22.6117C21.847 23.1392 21.2365 23.4355 20.6 23.4355C19.9635 23.4355 19.353 23.1392 18.9029 22.6117C18.4529 22.0842 18.2 21.3688 18.2 20.6228C18.2 19.8768 18.4529 19.1614 18.9029 18.6339C19.353 18.1064 19.9635 17.8101 20.6 17.8101C21.2365 17.8101 21.847 18.1064 22.2971 18.6339C22.7471 19.1614 23 19.8768 23 20.6228Z" fill="black"/>
<path d="M4.39921 5.62158C4.0279 5.62158 3.67181 5.75987 3.40926 6.00604C3.14671 6.2522 2.99921 6.58606 2.99921 6.93419V20.0602C2.99921 20.4084 3.14671 20.7422 3.40926 20.9884C3.67181 21.2345 4.0279 21.3728 4.39921 21.3728H5.86921C6.02987 20.631 6.45912 19.9641 7.08423 19.4851C7.70933 19.006 8.49186 18.7443 9.29921 18.7443C10.1066 18.7443 10.8891 19.006 11.5142 19.4851C12.1393 19.9641 12.5685 20.631 12.7292 21.3728H14.1992C14.5705 21.3728 14.9266 21.2345 15.1892 20.9884C15.4517 20.7422 15.5992 20.4084 15.5992 20.0602V6.93419C15.5992 6.58606 15.4517 6.2522 15.1892 6.00604C14.9266 5.75987 14.5705 5.62158 14.1992 5.62158H4.39921ZM19.7992 9.55939C19.4279 9.55939 19.0718 9.69769 18.8093 9.94385C18.5467 10.19 18.3992 10.5239 18.3992 10.872V18.8133C18.8496 18.727 19.3138 18.7248 19.7652 18.8067C20.2165 18.8886 20.6462 19.0532 21.0298 19.2909C21.4133 19.5286 21.7431 19.8348 22.0004 20.192C22.2577 20.5492 22.4374 20.9505 22.5292 21.3728H23.9992C24.3705 21.3728 24.7266 21.2345 24.9892 20.9884C25.2517 20.7422 25.3992 20.4084 25.3992 20.0602L25.1984 13.4972C25.1983 13.1491 25.1984 9.74693 25.1984 9.74693H22.1984C22.1984 9.74693 21.5705 9.55947 21.1992 9.55939H19.7992Z" fill="black"/>
</svg>
