<svg width="24" height="23" viewBox="0 0 24 23" fill="none" xmlns="http://www.w3.org/2000/svg">
<g opacity="0.8">
<path d="M14.752 10.6592L11.555 8.66028C11.4043 8.56598 11.229 8.51186 11.048 8.50371C10.867 8.49555 10.687 8.53366 10.5274 8.61396C10.3677 8.69426 10.2342 8.81374 10.1414 8.95963C10.0485 9.10551 9.99961 9.27232 10 9.44222V13.4391C9.99998 13.6088 10.0491 13.7754 10.1421 13.921C10.2352 14.0666 10.3686 14.1858 10.5282 14.2659C10.6879 14.346 10.8677 14.3839 11.0485 14.3757C11.2293 14.3675 11.4044 14.3134 11.555 14.2192L14.752 12.2202C14.889 12.1346 15.0013 12.0186 15.0789 11.8826C15.1566 11.7465 15.1972 11.5945 15.1972 11.4402C15.1972 11.2859 15.1566 11.1339 15.0789 10.9978C15.0013 10.8617 14.889 10.7457 14.752 10.6601V10.6592Z" stroke="black" stroke-width="1.5" stroke-linecap="round" stroke-linejoin="round"/>
<path d="M21 11.4393C21 12.5474 20.7672 13.6447 20.3149 14.6684C19.8626 15.6922 19.1997 16.6224 18.364 17.406C17.5282 18.1895 16.5361 18.8111 15.4442 19.2351C14.3522 19.6592 13.1819 19.8774 12 19.8774C10.8181 19.8774 9.64778 19.6592 8.55585 19.2351C7.46392 18.8111 6.47177 18.1895 5.63604 17.406C4.80031 16.6224 4.13738 15.6922 3.68508 14.6684C3.23279 13.6447 3 12.5474 3 11.4393C3 9.20133 3.94821 7.05505 5.63604 5.47258C7.32387 3.89012 9.61305 3.0011 12 3.0011C14.3869 3.0011 16.6761 3.89012 18.364 5.47258C20.0518 7.05505 21 9.20133 21 11.4393Z" stroke="black" stroke-width="1.5" stroke-linecap="round" stroke-linejoin="round"/>
</g>
</svg>
