<svg width="28" height="28" viewBox="0 0 28 28" fill="none" xmlns="http://www.w3.org/2000/svg">
<path fill-rule="evenodd" clip-rule="evenodd" d="M15.82 2.24409C16.1042 2.32789 16.3525 2.49451 16.5287 2.71972C16.705 2.94493 16.8 3.21698 16.8 3.49632V10.0593H22.4C22.6561 10.0592 22.9073 10.125 23.1263 10.2494C23.3453 10.3739 23.5237 10.5523 23.6421 10.7652C23.7604 10.9781 23.8143 11.2174 23.7977 11.457C23.7811 11.6965 23.6947 11.9273 23.548 12.1241L13.748 25.2501C13.5774 25.4792 13.3334 25.6513 13.0513 25.7414C12.7692 25.8314 12.4638 25.8347 12.1796 25.7508C11.8953 25.6669 11.6471 25.5002 11.4709 25.2749C11.2947 25.0495 11.1998 24.7774 11.2 24.498V17.935H5.59999C5.34391 17.9351 5.0927 17.8693 4.8737 17.7449C4.6547 17.6204 4.47631 17.442 4.35793 17.2291C4.23955 17.0162 4.18573 16.7769 4.20231 16.5373C4.2189 16.2978 4.30526 16.067 4.45199 15.8702L14.252 2.74419C14.4228 2.51552 14.6669 2.34386 14.9489 2.25417C15.2309 2.16447 15.536 2.1614 15.82 2.2454V2.24409Z" fill="black"/>
</svg>
