<svg width="28" height="28" viewBox="0 0 28 28" fill="none" xmlns="http://www.w3.org/2000/svg">
<path d="M15.4 23.1854C15.4001 23.4091 15.4612 23.629 15.5775 23.8243C15.6937 24.0196 15.8612 24.1838 16.0642 24.3014C16.2671 24.419 16.4987 24.4859 16.737 24.496C16.9753 24.5061 17.2124 24.4589 17.4258 24.3589L23.0258 21.7337C23.2583 21.6248 23.4539 21.4573 23.5906 21.25C23.7274 21.0428 23.7999 20.8039 23.8 20.5602V12.9944C23.7999 12.7707 23.7388 12.5508 23.6226 12.3555C23.5063 12.1602 23.3388 11.996 23.1359 11.8784C22.9329 11.7608 22.7013 11.6939 22.463 11.6838C22.2247 11.6737 21.9876 11.7209 21.7742 11.8209L16.1742 14.4461C15.9417 14.555 15.7461 14.7225 15.6094 14.9298C15.4726 15.137 15.4002 15.3759 15.4 15.6196V23.1854ZM21.2954 9.10906C21.5276 8.99994 21.7229 8.83238 21.8594 8.62514C21.9958 8.4179 22.0681 8.17915 22.0681 7.9356C22.0681 7.69204 21.9958 7.45329 21.8594 7.24605C21.7229 7.03881 21.5276 6.87126 21.2954 6.76213L14.6258 3.63551C14.4315 3.54447 14.2172 3.49707 14 3.49707C13.7828 3.49707 13.5685 3.54447 13.3742 3.63551L6.70461 6.76213C6.47238 6.87126 6.27711 7.03881 6.14064 7.24605C6.00418 7.45329 5.93191 7.69204 5.93191 7.9356C5.93191 8.17915 6.00418 8.4179 6.14064 8.62514C6.27711 8.83238 6.47238 8.99994 6.70461 9.10906L13.3742 12.2357C13.5685 12.3267 13.7828 12.3741 14 12.3741C14.2172 12.3741 14.4315 12.3267 14.6258 12.2357L21.2954 9.10906V9.10906ZM6.22581 11.8209C6.01242 11.7209 5.77533 11.6737 5.53702 11.6838C5.29871 11.6939 5.0671 11.7608 4.86416 11.8784C4.66122 11.996 4.49369 12.1602 4.37745 12.3555C4.26122 12.5508 4.20014 12.7707 4.20001 12.9944V20.5602C4.20015 20.8039 4.27265 21.0428 4.40939 21.25C4.54612 21.4573 4.7417 21.6248 4.97421 21.7337L10.5742 24.3589C10.7876 24.4589 11.0247 24.5061 11.263 24.496C11.5013 24.4859 11.7329 24.419 11.9359 24.3014C12.1388 24.1838 12.3063 24.0196 12.4226 23.8243C12.5388 23.629 12.5999 23.4091 12.6 23.1854V15.6196C12.5999 15.3759 12.5274 15.137 12.3906 14.9298C12.2539 14.7225 12.0583 14.555 11.8258 14.4461L6.22581 11.8209V11.8209Z" fill="black"/>
</svg>
