<svg width="18" height="18" viewBox="0 0 18 18" fill="none" xmlns="http://www.w3.org/2000/svg">
<path d="M8.14409 2.63431C8.4141 1.80541 9.5868 1.80541 9.8559 2.63431L10.8189 5.59711C10.8777 5.77755 10.9921 5.93477 11.1457 6.0463C11.2992 6.15784 11.4841 6.21797 11.6739 6.21811H14.7897C15.6618 6.21811 16.0236 7.33411 15.3189 7.84711L12.7989 9.67771C12.645 9.78934 12.5304 9.94682 12.4716 10.1276C12.4127 10.3083 12.4126 10.5031 12.4713 10.6839L13.4343 13.6467C13.7043 14.4756 12.7548 15.1659 12.0483 14.6529L9.5283 12.8223C9.37458 12.7107 9.1895 12.6506 8.99955 12.6506C8.80959 12.6506 8.62451 12.7107 8.4708 12.8223L5.9508 14.6529C5.2452 15.1659 4.29659 14.4756 4.5657 13.6467L5.5287 10.6839C5.58735 10.5031 5.58725 10.3083 5.5284 10.1276C5.46954 9.94682 5.35497 9.78934 5.20109 9.67771L2.682 7.84801C1.9773 7.33501 2.34 6.21901 3.2112 6.21901H6.3261C6.51604 6.21906 6.70113 6.15901 6.85487 6.04747C7.00861 5.93592 7.12311 5.77859 7.182 5.59801L8.145 2.63521L8.14409 2.63431Z" fill="#FCD980"/>
</svg>
